<?xml version="1.0" encoding="UTF-8"?><svg xmlns="http://www.w3.org/2000/svg" xmlns:xlink="http://www.w3.org/1999/xlink" version="1.1" id="Layer_1" x="0px" y="0px" viewBox="0 0 48 48" xml:space="preserve"><path d="M24 4C12.96 4 4 12.96 4 24c0 11.05 8.96 20 20 20s20-8.96 20-20S35.04 4 24 4zm0 34.98c-8.81 0-14.98-6.79-14.98-14.98 0-8.18 6.79-14.98 14.98-14.98 8.18 0 15.02 6.68 15.02 14.86 0 8.19-6.21 15.1-15.02 15.1z" fill="#C62828"/><path d="M35.59 31.129s-4.197 7.217-13.375 6.246c-8.894-.951-10.6-8.423-10.688-8.894 1.912 3.52 4.756 6.217 11.58 6.217 7.129 0 9.806-5.354 9.806-5.354l2.677 1.785z" fill="#C62828"/><path d="M36.482 30.236l-3.569-1.775s-3.569 5.344-9.806 5.344c-6.903 0-8.796-3.354-8.903-3.559 3.412 3.402 8.09 3.059 11.58 1.775 7.815-2.863 7.129-9.806 7.129-9.806h4.462s.892 5.354-.893 8.021z" fill="#C62828"/><path d="M32.021 21.323s.392 7.227-6.236 9.806c-3.491 1.363-6.884.098-7.129 0 0 0 2.628.471 4.452 0 3.569-.892 5.256-2.491 6.236-4.452 2.677-5.354-.883-8.913-.883-8.913l4.452-3.569s4.256 3.677 4.462 7.129h-5.354z" fill="#C62828"/><metadata><rdf:RDF xmlns:rdf="http://www.w3.org/1999/02/22-rdf-syntax-ns#" xmlns:rdfs="http://www.w3.org/2000/01/rdf-schema#" xmlns:dc="http://purl.org/dc/elements/1.1/"><rdf:Description about="https://iconscout.com/legal#licenses" dc:title="sitecore" dc:description="sitecore" dc:publisher="Iconscout" dc:date="2017-12-15" dc:format="image/svg+xml" dc:language="en"><dc:creator><rdf:Bag><rdf:li>Icons8</rdf:li></rdf:Bag></dc:creator></rdf:Description></rdf:RDF></metadata></svg>